<svg xmlns="http://www.w3.org/2000/svg" viewBox="0 0 120 120" role="img" aria-labelledby="title">
  <title id="title">두 팔을 벌리고 눈을 반짝이며 감탄하는 동작</title>
  <g>
    <animateTransform attributeName="transform" type="translate" values="0 0;0 -9;0 0" dur="1s" repeatCount="indefinite"/>
    <path d="M35 116 L39 78 Q60 66 81 78 L86 116Z" fill="#f0a84a" stroke="#f6ead6" stroke-width="7" stroke-linejoin="round"/>
    <circle cx="60" cy="49" r="29" fill="#2ec4b6" stroke="#f6ead6" stroke-width="7"/>
    <path d="M47 37 L50 44 L57 47 L50 50 L47 57 L44 50 L37 47 L44 44Z M73 37 L76 44 L83 47 L76 50 L73 57 L70 50 L63 47 L70 44Z" fill="#f6ead6"/>
    <ellipse cx="60" cy="64" rx="8" ry="10" fill="#17303a"/>
    <path d="M40 82 Q21 72 8 55 M80 82 Q99 72 112 55" fill="none" stroke="#f0a84a" stroke-width="18" stroke-linecap="round"/>
    <path d="M40 82 Q21 72 8 55 M80 82 Q99 72 112 55" fill="none" stroke="#f6ead6" stroke-width="7" stroke-linecap="round"/>
  </g>
  <g transform="translate(15 18)" fill="#f0a84a">
    <path d="M0 -20 L5 -5 L20 0 L5 5 L0 21 L-5 5 L-19 0 L-5 -5Z">
      <animateTransform attributeName="transform" type="scale" values=".55;1.18;.55" dur="1s" repeatCount="indefinite"/>
    </path>
  </g>
  <g transform="translate(105 18)" fill="#f0a84a">
    <path d="M0 -20 L5 -5 L19 0 L5 5 L0 21 L-5 5 L-20 0 L-5 -5Z">
      <animateTransform attributeName="transform" type="scale" values="1.18;.55;1.18" dur="1s" repeatCount="indefinite"/>
    </path>
  </g>
  <g transform="translate(105 99)" fill="#f0a84a">
    <path d="M0 -20 L5 -5 L19 0 L5 5 L0 22 L-5 5 L-20 0 L-5 -5Z">
      <animateTransform attributeName="transform" type="scale" values=".55;1.18;.55" dur="1s" repeatCount="indefinite"/>
    </path>
  </g>
  <g transform="translate(18 105)" fill="#f0a84a">
    <path d="M0 -16 L4 -4 L16 0 L4 4 L0 17 L-4 4 L-16 0 L-4 -4Z">
      <animateTransform attributeName="transform" type="scale" values="1.18;.55;1.18" dur="1s" repeatCount="indefinite"/>
    </path>
  </g>
</svg>
